<?xml version="1.0" encoding="UTF-8" standalone="no"?>
<svg
   width="125"
   height="144.00101"
   viewBox="0 0 125 144.001"
   version="1.1"
   id="svg2"
   sodipodi:docname="logo.svg"
   inkscape:version="1.3 (0e150ed6c4, 2023-07-21)"
   inkscape:export-filename="logo.png"
   inkscape:export-xdpi="184.32001"
   inkscape:export-ydpi="184.32001"
   xmlns:inkscape="http://www.inkscape.org/namespaces/inkscape"
   xmlns:sodipodi="http://sodipodi.sourceforge.net/DTD/sodipodi-0.dtd"
   xmlns="http://www.w3.org/2000/svg"
   xmlns:svg="http://www.w3.org/2000/svg">
  <defs
     id="defs2" />
  <sodipodi:namedview
     id="namedview2"
     pagecolor="#ffffff"
     bordercolor="#666666"
     borderopacity="1.0"
     inkscape:showpageshadow="2"
     inkscape:pageopacity="0.0"
     inkscape:pagecheckerboard="0"
     inkscape:deskcolor="#d1d1d1"
     inkscape:zoom="5.9518709"
     inkscape:cx="20.749778"
     inkscape:cy="58.553017"
     inkscape:window-width="2560"
     inkscape:window-height="1377"
     inkscape:window-x="-8"
     inkscape:window-y="456"
     inkscape:window-maximized="1"
     inkscape:current-layer="svg2" />
  <path
     fill="#FFF"
     d="M 3,106.556 V 37.446 L 63,2.885 123,37.446 v 69.11 l -60,34.56 z"
     id="path1"
     style="fill:#1c261c;fill-opacity:1" />
  <path
     fill="#050507"
     d="M 62.5,5.771 120,38.89 v 66.221 L 62.5,138.23 5,105.111 V 38.89 Z M 62.5,0 0,36 v 72.001 l 62.5,36 62.5,-36 V 36 Z"
     id="path2"
     style="fill:#3f473f;fill-opacity:1" />
  <path
     d="m 110.28784,47.361081 c -2.65514,-0.81398 -5.08382,-1.33216 -7.25138,-1.5382 a 14.964825,14.964825 0 0 1 2.48377,6.58632 l 0.1071,-0.16525 c 1.09449,-1.76261 2.06556,-3.80878 4.66153,-4.88287 m -19.71306,16.96 c -5.53875,0 -10.04319,-4.50445 -10.04319,-10.04319 0,-5.53875 4.50444,-10.04218 10.04319,-10.04218 1.15671,0 2.26855,0.19993 3.30285,0.56102 -3.99035,1.50454 -6.38436,4.75129 -6.76788,9.96567 2.00741,-2.3073 6.39863,-4.81861 10.39918,-5.60199 0,0 -2.95196,1.30257 -5.70603,3.24063 -2.13493,1.54636 -3.59663,2.95094 -4.10256,3.40077 -0.52633,0.45085 -2.74387,2.3124 -3.71698,3.47217 0.33661,0.42025 0.70586,0.81296 1.10367,1.17609 1.3342,-1.65448 2.57455,-2.82547 2.78162,-2.87647 3.60988,2.40522 7.81647,2.86219 11.59771,1.36581 -1.681,3.19779 -5.03485,5.38269 -8.89158,5.38269 m 0,-23.96147 c -7.67469,0 -13.92032,6.24359 -13.92032,13.91828 0,3.08456 1.00983,5.93451 2.7143,8.24487 L 67.94037,73.95319 a 2.0941166,2.0941166 0 1 0 2.96216,2.96013 L 82.33194,65.482891 a 13.841774,13.841774 0 0 0 8.24386,2.71327 c 7.67469,0 13.9193,-6.24257 13.9193,-13.91929 0,-7.67367 -6.24461,-13.91726 -13.9193,-13.91726"
     fill="#7fd14f"
     id="path2-9"
     style="display:none;fill:#36651b;fill-opacity:1;stroke-width:1.02003" />
  <path
     d="m 31.812884,117.34397 c -1.012633,-0.33754 -2.662851,-0.99388 -2.944137,-1.16266 a 3.5629689,3.5629689 0 0 1 -1.237663,-1.35018 3.3379392,3.3379392 0 0 1 0,-3.03789 c 0.187525,-0.41256 0.693841,-0.99388 1.031386,-1.21891 0.131267,-0.0938 0.131267,-0.11252 0.0375,-0.37505 -0.243782,-0.7501 -0.225029,-1.59396 0.03751,-2.19404 0.05626,-0.15002 0.112515,-0.26254 0.09376,-0.28129 l -0.600078,0.0563 c -1.181406,0.13127 -2.719108,-0.0938 -4.238058,-0.61883 -1.143901,-0.3938 -1.312673,-0.45006 -1.575208,-0.3938 -0.300039,0.0563 -0.487564,0.22502 -0.675088,0.56257 l -0.15002,0.31879 0.337544,0.30004 a 2.5878405,2.5878405 0 0 1 -1.125148,4.36932 c -0.412554,0.11252 -1.087643,0.48757 -1.387683,0.78761 -0.168771,0.15002 -0.281286,0.24378 -0.281286,0.18753 0,-0.13127 -0.431307,-0.90012 -0.843861,-1.53771 -0.562575,-0.88137 -0.675089,-1.16265 -0.712594,-1.76273 -0.07501,-1.31267 0.675088,-2.34406 1.931504,-2.6816 0.187525,-0.0563 0.450059,-0.0938 0.618831,-0.0938 h 0.30004 l 0.187525,-0.37505 c 0.225029,-0.46882 0.543821,-0.84386 0.937623,-1.05014 l 0.262534,-0.16878 -0.412554,-0.30003 c -0.825108,-0.56258 -1.725227,-1.57521 -2.362811,-2.70036 -0.450059,-0.7501 -0.712594,-0.91887 -1.21891,-0.71259 l -0.22503,0.0938 v 0.56257 c 0,0.69384 -0.150019,1.03139 -0.600079,1.4627 -0.637584,0.61883 -1.36893,0.69384 -2.43782,0.30003 a 108.85807,108.85807 0 0 0 -1.575208,-0.61883 c -0.112514,-0.0938 -0.131267,-0.0938 -0.01875,-0.15002 0.30004,-0.18752 0.600079,-0.69384 0.693841,-1.21891 0.09376,-0.48756 0.262535,-0.84386 0.562574,-1.12515 0.375049,-0.37504 0.750099,-0.56257 1.312673,-0.58132 a 1.8752467,1.8752467 0 0 1 1.350178,0.41255 c 0.187524,0.16877 0.187524,0.18753 0.337544,0.0938 0.262535,-0.18752 0.825108,-0.30003 1.162653,-0.24378 l 0.318792,0.0375 -0.05626,-0.18752 a 6.7508886,6.7508886 0 0 1 -0.15002,-2.88788 c 0.112515,-0.7126 0.07501,-0.86262 -0.300039,-1.05014 l -0.22503,-0.11251 -0.09376,0.15001 a 1.5752073,1.5752073 0 0 1 -1.387683,0.78761 c -0.581326,0 -1.050138,-0.28129 -1.36893,-0.86261 l -0.412555,-0.6751 -0.300039,-0.58132 c -0.03751,-0.15003 -0.01875,-0.16878 0.09376,-0.13127 0.187525,0.0375 0.600079,-0.13127 0.975129,-0.41255 0.375049,-0.2813 0.843861,-0.43131 1.200158,-0.37506 0.618831,0.0938 1.125148,0.50632 1.275167,1.08765 0.09376,0.30003 0.112516,0.31879 0.412555,0.3938 0.22503,0.075 0.393802,0.18753 0.562574,0.33755 l 0.243782,0.24378 0.07501,-0.20628 c 0.09376,-0.26253 0.562574,-0.99388 0.881366,-1.35018 l 0.243782,-0.26253 -0.15002,-0.3188 a 2.6253455,2.6253455 0 0 1 0.656336,-3.05665 c 0.318792,-0.30004 0.618832,-0.45005 1.068891,-0.60008 0.30004,-0.075 0.525069,-0.075 1.894,-0.0375 0.937623,0.0375 1.631464,0.0938 1.762732,0.13128 0.187524,0.075 0.187524,0.075 0.05626,0.16877 -0.05626,0.0375 -0.187525,0.18752 -0.243782,0.33754 -0.131267,0.22503 -0.131267,0.3188 -0.15002,1.40644 0,1.08764 0,1.20015 -0.131267,1.5002 -0.581326,1.42518 -2.062772,2.06277 -3.506711,1.50019 l -0.356297,-0.13126 -0.15002,0.15001 c -0.187525,0.18753 -0.637584,0.86262 -0.750098,1.14391 -0.30004,0.69384 -0.412555,2.45657 -0.225031,3.13166 a 9.9388078,9.9388078 0 0 0 1.837743,2.86912 c 0.600079,0.60008 0.937623,0.82511 1.781484,1.12515 1.875247,0.67509 2.66285,0.86261 3.750494,0.86261 0.787603,0 1.181405,-0.0938 2.43782,-0.54382 1.687722,-0.58132 2.475326,-0.95637 3.431702,-1.61271 a 6.5633638,6.5633638 0 0 0 2.250296,-2.38156 c 0.131267,-0.26253 0.468812,-0.84386 0.750099,-1.27517 a 14.533162,14.533162 0 0 0 2.100276,-5.43821 c 0.09376,-0.67509 0.0375,-2.08153 -0.09376,-2.6066 L 38.188727,89.85293 C 37.551143,84.92103 35.975936,81.47058 33.444353,79.48282 33.20057,79.29529 32.656749,78.82648 32.244194,78.43267 27.57483,74.06335 23.280515,71.906821 19.304991,71.906821 c -0.600078,0 -0.956375,0.0375 -1.837741,0.187523 a 31.072839,31.072839 0 0 1 -6.375839,0.656333 c -2.156534,0 -3.469207,-0.131264 -5.325701,-0.562571 L 4.940598,72.0005 V 60.542737 l 0.187525,0.13127 c 2.381563,1.83774 5.438215,2.175285 10.651402,1.200158 a 35.067114,35.067114 0 0 1 2.081523,-0.318793 c 0.956376,-0.112513 1.218911,-0.168773 1.762732,-0.375048 1.44394,-0.543819 2.156534,-1.743977 2.231544,-3.806749 0,-0.450064 0,-1.368931 -0.03751,-2.04402 -0.0375,-1.068895 -0.05626,-1.256418 -0.187525,-1.462693 -0.318791,-0.61883 -0.825108,-0.862613 -2.212791,-0.993883 -0.562574,-0.05622 -0.693841,-0.05622 -0.843861,0.0375 -0.187524,0.09376 -0.431307,0.393798 -0.431307,0.562571 0,0.01878 0.131267,0.187529 0.281287,0.318793 0.37505,0.337545 0.562574,0.750101 0.618832,1.256418 0.05626,0.900116 -0.431307,1.631465 -1.312673,1.96901 -0.450059,0.168766 -0.825109,0.431307 -0.937624,0.656333 l -0.05626,0.187523 -0.187525,-0.206275 c -0.318792,-0.375047 -1.125148,-1.612713 -1.200158,-1.893999 -0.131267,-0.412555 -0.07501,-1.050137 0.112515,-1.42519 0.300039,-0.562571 0.862614,-0.937624 1.500197,-1.031386 0.281288,-0.0375 0.318792,-0.05622 0.37505,-0.262534 0.131267,-0.337545 0.375049,-0.67509 0.637584,-0.843856 l 0.225029,-0.168773 -0.187524,-0.150021 a 6.9384128,6.9384128 0 0 1 -1.556452,-1.331426 l -0.262535,-0.318788 -0.412554,0.131264 c -0.525069,0.187524 -1.331425,0.187524 -1.875247,0.0375 -1.237663,-0.375053 -2.100276,-1.36893 -2.325306,-2.625348 -0.09376,-0.525068 -0.09376,-0.712592 0.07501,-1.518952 a 4.1255429,4.1255429 0 0 0 -0.0375,-1.725227 l -0.187525,-0.281285 -0.131267,-0.112513 0.318792,-0.07501 c 0.187524,-0.05628 1.012633,-0.09376 1.950256,-0.112513 1.368931,-0.01878 1.687722,0 2.006514,0.075 a 3.3004343,3.3004343 0 0 1 2.437821,2.381565 c 0.09376,0.412556 0.09376,1.200159 0,1.631465 -0.112515,0.375048 -0.356297,0.900122 -0.506317,1.068894 -0.07501,0.09376 -0.07501,0.131265 0.0375,0.281286 0.262534,0.356296 1.012633,1.012634 1.425187,1.218909 0.337545,0.187524 0.506317,0.225032 1.050139,0.281286 a 4.1630478,4.1630478 0 0 1 3.187919,1.575211 l 0.15002,0.225026 0.112515,-0.281285 a 13.239242,13.239242 0 0 1 4.050533,-5.344453 c 0.637584,-0.525068 0.900118,-0.918873 0.900118,-1.312671 0,-0.26254 -0.243782,-0.768852 -0.450059,-0.956381 l -0.131267,-0.131264 -0.337545,0.112512 c -1.312673,0.468815 -2.66285,0.131271 -3.562968,-0.862613 A 3.3754442,3.3754442 0 0 1 23.16799,40.833876 c 0.09376,-0.431307 0.112515,-1.387682 0,-1.70647 -0.01875,-0.13127 -0.131267,-0.300042 -0.187525,-0.375053 -0.131267,-0.131264 -0.150019,-0.150015 -0.05626,-0.187524 0.431306,-0.168772 3.675483,-0.206274 4.238057,-0.05628 a 3.3004343,3.3004343 0 0 1 2.100277,4.68812 l -0.187525,0.431307 0.187525,0.281285 c 0.468811,0.600079 0.712593,1.21891 0.712593,1.875248 v 0.356296 l 0.37505,-0.187523 a 10.688906,10.688906 0 0 1 4.613107,-1.106397 c 1.087643,-0.05628 1.331425,-0.150021 1.500197,-0.562571 0.09376,-0.150021 0.131268,-0.356302 0.112516,-0.506317 0,-0.225032 -0.03751,-0.243783 -0.281288,-0.318794 a 2.5315831,2.5315831 0 0 1 -1.668969,-2.194041 c -0.07501,-0.862614 0.225029,-1.500195 1.050138,-2.250296 0.581326,-0.543819 0.918871,-1.012628 0.918871,-1.312671 0,-0.07501 0.01875,-0.150021 0.05626,-0.150021 0.206278,0 2.306554,1.687724 2.569088,2.062772 a 2.4378208,2.4378208 0 0 1 0.45006,1.443941 c 0,0.768851 -0.281287,1.406433 -0.862614,1.91275 a 2.6253455,2.6253455 0 0 1 -0.937624,0.525069 c -0.0375,0 -0.07501,0.187529 -0.09376,0.468815 a 2.2502961,2.2502961 0 0 1 -0.543822,1.36893 l -0.187525,0.187524 0.187525,0.0375 a 9.751283,9.751283 0 0 1 2.81287,1.162656 l 0.375047,0.243783 0.337545,-0.262534 c 0.787609,-0.581328 1.650222,-0.862613 2.644105,-0.862613 a 4.369325,4.369325 0 0 1 4.369321,4.088035 c 0.187523,1.406433 0.600079,2.381565 1.125147,2.625348 l 0.243783,0.112513 -0.262534,0.150021 a 13.689301,13.689301 0 0 1 -2.437819,0.975127 9.3199764,9.3199764 0 0 1 -2.812878,0.787602 4.3130675,4.3130675 0 0 1 -3.375443,-1.350179 4.3130675,4.3130675 0 0 1 -1.218907,-2.550332 c -0.05626,-0.562577 -0.0375,-0.731349 0.187524,-1.837746 0,-0.150015 -0.0375,-0.187523 -0.468811,-0.450057 a 5.1756811,5.1756811 0 0 0 -3.187923,-0.825106 c -1.162652,0 -1.837742,0.07501 -2.569088,0.262535 -0.937623,0.225026 -1.725227,0.637581 -2.306553,1.181401 l -0.881366,0.768851 c -0.750099,0.656339 -1.612713,1.556455 -2.081524,2.212793 a 7.9135416,7.9135416 0 0 0 -1.162653,2.381566 c -0.112515,0.48756 -0.112515,0.637581 -0.07501,1.743977 0.112515,3.562967 -0.750099,6.094553 -2.756613,7.87604 -0.206277,0.187523 -0.318791,0.337545 -0.262534,0.356296 l 0.881366,0.225026 c 4.388077,1.143904 8.719897,3.731745 13.164232,7.838531 0.562574,0.506321 0.843861,0.712601 1.200158,0.900121 1.593962,0.76885 2.737861,0.30004 4.369326,-1.800237 0.7501,-0.975126 0.900115,-1.200158 0.937624,-1.500195 0.0375,-0.375053 -0.243783,-0.88137 -0.825111,-1.443941 -0.487567,-0.487566 -0.656333,-0.562577 -0.975127,-0.412556 -0.13127,0.05628 -0.13127,0.09376 -0.13127,0.600079 0,0.487567 -0.01872,0.562571 -0.187523,0.787603 -0.300037,0.431307 -0.618831,0.61883 -1.106397,0.637588 -0.262534,0.01872 -0.506311,0 -0.693841,-0.07501 -0.150015,-0.0375 -0.450058,-0.09376 -0.675087,-0.09376 -0.22503,0 -0.375049,0 -0.337544,-0.05628 l 0.09376,-0.750101 c 0.07501,-0.937624 0.131267,-1.125147 0.468811,-1.462692 a 1.5001974,1.5001974 0 0 1 1.856497,-0.187524 c 0.131264,0.09376 0.150016,0.09376 0.468809,-0.0375 a 1.1251481,1.1251481 0 0 1 0.600079,-0.13127 c 0.300037,0.01878 0.281286,0.07501 0.112513,-0.600079 -0.05628,-0.225032 -0.131264,-0.637582 -0.150015,-0.937624 l -0.0375,-0.525069 -0.318794,-0.112513 c -0.375047,-0.150021 -0.937624,-0.656338 -1.181401,-1.031386 -0.243783,-0.431306 -0.356296,-0.900121 -0.318794,-1.462692 0.01878,-0.412556 0.05628,-0.562577 0.243783,-0.937624 0.187524,-0.375047 0.318788,-0.54382 0.806354,-0.993883 0.637588,-0.562571 0.937624,-1.050137 0.900122,-1.312672 v -0.131264 c 0.187523,0 2.194036,1.556454 2.512829,1.931502 a 2.6253455,2.6253455 0 0 1 0.225026,2.906633 c -0.225026,0.375048 -0.806354,0.881365 -1.181401,1.031386 l -0.393804,0.131264 c -0.150022,0 0,1.106397 0.187523,1.575212 0.07501,0.187523 0.318794,0.506311 0.600079,0.806354 0.712599,0.768851 1.050137,1.556454 0.993884,2.325306 v 0.318793 l 0.61883,-0.281291 c 1.312671,-0.61883 2.625349,-0.937618 4.256808,-1.031386 1.387687,-0.09376 1.650222,-0.243777 1.725232,-0.975126 l 0.0375,-0.318794 -0.375054,-0.131264 a 2.5503356,2.5503356 0 0 1 -1.500194,-3.131666 c 0.187523,-0.543819 0.337544,-0.750094 0.956375,-1.331422 0.600079,-0.562577 0.937624,-1.031386 0.881364,-1.29392 0,-0.07501 0,-0.13127 0.0375,-0.13127 0.225032,0 2.325305,1.687724 2.606591,2.062771 a 2.5503356,2.5503356 0 0 1 -1.350174,3.863009 c -0.0375,0 -0.07501,0.187524 -0.09376,0.450064 -0.0375,0.525069 -0.225032,1.012629 -0.506318,1.350174 -0.225032,0.281285 -0.243783,0.262534 0.281286,0.375053 a 9.1324516,9.1324516 0 0 1 2.79412,1.275163 c 0.0375,0 0.225026,-0.09376 0.41255,-0.225026 0.7501,-0.562577 1.443941,-0.80636 2.437825,-0.862614 a 4.0692855,4.0692855 0 0 1 3.26293,1.275169 c 0.806354,0.806354 1.181401,1.593958 1.312671,2.737858 0.150012,1.46269 0.750094,2.75661 1.256404,2.75661 0.13127,0 0.13127,0 0,0.0938 a 12.939203,12.939203 0 0 1 -2.569075,1.06889 c -2.212793,0.76885 -2.437825,0.82511 -3.244179,0.7876 a 4.33182,4.33182 0 0 1 -4.088041,-5.43821 l 0.112519,-0.37505 -0.168772,-0.15002 a 8.2135811,8.2135811 0 0 0 -1.96901,-0.918875 c -0.375053,-0.09376 -0.67509,-0.112513 -1.443942,-0.112513 -1.91275,0 -3.375442,0.375047 -4.556849,1.162648 -0.375048,0.24379 -0.562571,0.43131 -0.881365,0.84386 a 8.5511254,8.5511254 0 0 1 -3.806749,3.09416 6.5071062,6.5071062 0 0 1 -2.119032,0.37505 c 0,0.0375 0.150022,0.26253 0.356296,0.52507 2.02527,2.71911 3.375443,6.4696 4.013031,11.12022 0.225026,1.55645 0.731343,2.25029 1.800237,2.43781 0.48756,0.0938 0.993878,0.0375 2.100274,-0.18752 0.918873,-0.22503 1.125148,-0.31879 1.275169,-0.65634 0.131264,-0.24378 0.150021,-0.76885 0.0375,-0.76885 -0.187523,0 -0.862613,-0.37505 -1.143899,-0.67508 -1.012634,-1.01264 -0.993883,-2.62535 0.0375,-3.58173 0.806354,-0.7501 0.937624,-0.91887 1.050137,-1.12514 0.07501,-0.15003 0.13127,-0.33755 0.13127,-0.43131 0,-0.15002 0.01878,-0.18752 0.112513,-0.15002 a 14.251875,14.251875 0 0 1 2.531586,2.06277 c 0.300037,0.45006 0.431307,0.88136 0.431307,1.40643 0,1.0689 -0.562577,1.96901 -1.537703,2.38157 l -0.318794,0.13127 -0.0375,0.45006 c -0.01878,0.52506 -0.187524,0.99387 -0.506317,1.33142 l -0.187524,0.22503 0.243783,0.0375 c 0.693841,0.11252 1.931502,0.61884 2.737861,1.12515 l 0.375048,0.24378 0.225026,-0.18752 c 0.993883,-0.78761 2.362814,-1.12515 3.562972,-0.88137 0.937624,0.18753 1.687724,0.60008 2.344057,1.27517 0.7501,0.7876 1.068894,1.5002 1.218909,2.73786 a 5.4382156,5.4382156 0 0 0 0.562577,1.98776 c 0.206275,0.43131 0.468809,0.69384 0.67509,0.69384 0.225026,0 0,0.18753 -0.581328,0.45006 -0.54382,0.26254 -3.656734,1.35018 -4.163045,1.46269 A 4.3505725,4.3505725 0 0 1 52.17807,95.15983 l 0.07501,-0.24379 -0.187524,-0.13127 a 6.9759182,6.9759182 0 0 0 -1.687724,-0.8251 c -0.750101,-0.26254 -1.368931,-0.28129 -2.250295,-0.0563 -0.825111,0.18752 -2.269053,0.20628 -2.981645,0 A 4.5005922,4.5005922 0 0 1 43.62694,93.19078 l -0.300036,-0.24379 -0.0375,0.46882 a 18.527438,18.527438 0 0 1 -2.887882,8.28859 c -0.600078,0.97512 -0.693841,1.20015 -0.693841,1.68771 0,0.56258 0.262534,0.97514 0.843862,1.36894 l 0.375047,0.24378 0.318794,-0.26254 c 0.450058,-0.37504 0.862613,-0.60007 1.443941,-0.7876 0.431307,-0.15002 0.562571,-0.18752 1.350174,-0.18752 0.825111,0 0.88137,0 1.387682,0.18752 0.7501,0.26254 1.125153,0.52507 1.687724,1.06889 0.806354,0.80636 1.181407,1.61271 1.312671,2.81287 0.150021,1.40643 0.750101,2.6816 1.256418,2.6816 0.131264,0 0.131264,0 0.01878,0.11252 a 28.316226,28.316226 0 0 1 -4.613109,1.72523 c -1.556455,0.43131 -3.450454,-0.18753 -4.444331,-1.46269 -0.90012,-1.12515 -1.20016,-2.6066 -0.843863,-3.93802 0.0375,-0.11252 -0.0375,-0.18753 -0.431306,-0.46882 a 4.050533,4.050533 0 0 1 -1.66897,-2.25029 l -0.0375,-0.26254 -0.581327,0.56258 a 12.789183,12.789183 0 0 1 -3.225424,2.25029 c -0.600079,0.30004 -1.969009,0.86262 -2.606593,1.06889 -0.431307,0.13127 -0.787604,0.37506 -0.975129,0.67509 -0.150019,0.26254 -0.187525,0.78761 -0.05626,1.16266 l 0.07501,0.20627 0.487565,0.0375 c 0.937623,0.075 1.687722,0.4313 2.306553,1.08764 a 3.3566917,3.3566917 0 0 1 0.318792,4.2193 c -0.562574,0.86261 -0.862613,1.80024 -0.656336,2.17528 0.05626,0.11252 0.05626,0.13127 -0.131267,0.13127 -0.112515,0 -0.468812,-0.0938 -0.806357,-0.20627 z"
     fill="#3f473f"
     id="path1-9"
     style="display:none;stroke-width:0.187525" />
  <path
     d="m 49.582461,108.76894 c 0,0.72094 0.13735,1.38833 0.40957,1.99769 0.52844,1.2035 1.50952,2.15051 2.73093,2.63609 0.61941,0.24886 1.2723,0.37274 1.96423,0.37274 1.33735,0.007 2.62604,-0.5011 3.59811,-1.4196 0.98884,-0.92904 1.54268,-2.23022 1.52673,-3.58692 0.0163,-1.3567 -0.53789,-2.65791 -1.52673,-3.58695 -0.971,-0.92075 -2.26114,-1.42919 -3.59922,-1.41848 -0.69082,0 -1.34371,0.12271 -1.962,0.37165 -1.22183,0.48532 -2.20336,1.43235 -2.73205,2.63606 -0.27633,0.62939 -0.41557,1.31038 -0.40846,1.99772 m -4.93398,0 c 0,-1.34706 0.24773,-2.60371 0.7455,-3.76774 0.48177,-1.14154 1.18547,-2.17603 2.07026,-3.04341 0.88165,-0.86829 1.93631,-1.54461 3.16505,-2.03453 1.22764,-0.48995 2.57917,-0.73435 4.05568,-0.73435 1.45977,0 2.80795,0.24552 4.04336,0.73435 1.23657,0.49104 2.29906,1.16624 3.189638,2.03453 0.88997,0.86562 1.59801,1.90034 2.082541,3.04341 0.50239,1.19206 0.75606,2.47418 0.74551,3.76774 0.0116,1.29323 -0.24292,2.575 -0.74551,3.7666 -0.484181,1.14358 -1.192241,2.17874 -2.082541,3.04455 -0.890578,0.86826 -1.953068,1.54458 -3.189638,2.03565 -1.23541,0.48883 -2.58359,0.73323 -4.04336,0.73323 -1.47651,0 -2.82806,-0.24554 -4.05568,-0.73323 -1.22762,-0.49107 -2.2834,-1.16739 -3.16505,-2.03565 -0.8851,-0.86757 -1.58881,-1.9025 -2.07026,-3.04455 -0.49775,-1.16289 -0.7455,-2.41954 -0.7455,-3.7666 m 28.156459,5.07905 h 7.60579 v 3.99542 H 64.88781 l 8.59121,-14.15244 h -7.14819 v -3.99538 h 15.01958 z"
     fill="#fff"
     id="path1-0"
     style="fill:#ffffff;stroke-width:1.11603"
     sodipodi:nodetypes="cccccccccccccccscccccccsccccccccccccc" />
  <path
     d="m 109.15722,40.829806 c -5.76409,-1.76711 -11.0366,-2.892029 -15.74223,-3.339341 a 32.48758,32.48758 0 0 1 5.39204,14.298459 l 0.23242,-0.35877 c 2.3761,-3.826499 4.48417,-8.268565 10.11984,-10.600348 M 66.36363,77.64879 c -12.024238,0 -21.803032,-9.77884 -21.803032,-21.803061 0,-12.024239 9.778832,-21.800852 21.803032,-21.800852 2.51116,0 4.92486,0.433938 7.17025,1.217932 -8.66276,3.266249 -13.859952,10.314676 -14.692602,21.634734 4.35796,-5.009002 13.891012,-10.460865 22.575912,-12.161502 0,0 -6.40851,2.827782 -12.3874,7.035134 -4.63475,3.357052 -7.808032,6.406283 -8.906332,7.382843 -1.14269,0.978783 -5.956771,5.020081 -8.069339,7.537854 0.730755,0.912328 1.532405,1.764888 2.395988,2.553218 2.896461,-3.591768 5.589181,-6.133922 6.038711,-6.244656 C 68.32563,68.22205 77.45783,69.21409 85.66663,65.965552 82.01726,72.9077 74.73634,77.65099 66.36363,77.65099 m 0,-52.018656 c -16.661213,0 -30.220035,13.554363 -30.220035,30.215599 0,6.696337 2.192281,12.883397 5.892558,17.899047 L 17.223691,98.55944 a 4.5461798,4.5461798 0 1 0 6.430646,6.4262 L 48.46678,80.17097 a 30.049518,30.049518 0 0 0 17.89685,5.89036 c 16.66119,0 30.21783,-13.55221 30.21783,-30.217824 0,-16.659021 -13.55664,-30.213386 -30.21783,-30.213386"
     fill="#7fd14f"
     id="path2-2"
     style="stroke-width:2.2144" />
</svg>
